# xmcd
#
# Track frame offsets: 
#        150
#        16290
#        30720
#        48915
#        64335
#        93255
#        110085
#        127365
#        144615
#        162900
#        179370
#        198120
#        213525
#
# Disc length: 3159 seconds
#
# Revision: 1
# Processed by: cddbd v1.5.2PL0 Copyright (c) Steve Scherf et al.
# Submitted via: ExactAudioCopyFreeDBPlugin 1.0
#
DISCID=bf0c550d
DTITLE=Крыс - Не жаль
DYEAR=2003
DGENRE=Blues
TTITLE0=Зубная щетка
TTITLE1=Гонка в завтра
TTITLE2=Выдох
TTITLE3=Не понимаю себя
TTITLE4=Сусанин
TTITLE5=С работы домой
TTITLE6=Якобы
TTITLE7=Соло саламандры
TTITLE8=Песня для ГенГеныча
TTITLE9=Самая тихая песня
TTITLE10=Береста-2
TTITLE11=Я тот о ком
TTITLE12=Три
EXTD=
EXTT0=
EXTT1=
EXTT2=
EXTT3=
EXTT4=
EXTT5=
EXTT6=
EXTT7=
EXTT8=
EXTT9=
EXTT10=
EXTT11=
EXTT12=
PLAYORDER=
